<svg width="188" height="132" viewBox="0 0 188 132" fill="none" xmlns="http://www.w3.org/2000/svg">
<g clip-path="url(#clip0_883_1089)">
<path d="M96.31 0C97.31 0 98.31 0 99.31 0C105.363 0.96 109.95 3.62 113.07 7.98C114.05 9.35333 116.023 13.92 118.99 21.68C131.563 54.56 144.083 87.46 156.55 120.38C157.123 121.9 157.33 123.053 157.17 123.84C156.91 125.127 156.04 126.093 154.56 126.74C152.653 127.573 151.29 127.037 150.47 125.13C148.43 120.43 146.517 115.71 144.73 110.97C133.083 80.03 121.34 49.1233 109.5 18.25C108.48 15.5967 107.647 13.83 107 12.95C103.82 8.67 100.097 6.99333 95.83 7.92C92.0634 8.74 89.3134 10.92 87.58 14.46C85.7667 18.1467 85.74 22.3267 87.5 27C94.7867 46.3733 102.103 65.7367 109.45 85.09C111.31 89.9833 112.297 93.5533 112.41 95.8C112.61 99.8933 111.537 103.607 109.19 106.94C104.877 113.053 99.2634 115.827 92.35 115.26C87.8567 114.887 83.93 113.34 80.57 110.62C78.21 108.713 76.3234 106.377 74.91 103.61C74.7167 103.237 73.63 100.487 71.65 95.36C68.39 86.94 65.1534 78.5067 61.94 70.06C61.0267 67.6667 59.39 65.8733 57.03 64.68C54.89 63.5933 52.6334 63.18 50.26 63.44C47.0934 63.7867 44.5267 65.3267 42.56 68.06C40.7334 70.6133 39.8534 73.4233 39.92 76.49C39.96 78.2633 40.6767 80.99 42.07 84.67C47.39 98.71 52.68 112.763 57.94 126.83C58.6067 128.603 58.1 129.937 56.42 130.83C53.6934 132.277 51.7434 131.48 50.57 128.44C45.7367 115.9 40.9667 103.333 36.26 90.74C33.7867 84.1133 32.4867 79.52 32.36 76.96C32.1134 71.7667 33.7234 67.01 37.19 62.69C39.43 59.89 42.24 57.92 45.62 56.78C48.7867 55.7133 52.0734 55.5267 55.48 56.22C59.7267 57.08 63.1934 59.1333 65.88 62.38C67.32 64.1267 69.0467 67.5733 71.06 72.72C73.98 80.1733 76.8667 87.6367 79.72 95.11C79.7334 95.15 80.0534 96.09 80.68 97.93C82.1134 102.17 84.71 105.053 88.47 106.58C91.9834 108 95.3267 107.977 98.5 106.51C102.053 104.87 104.137 101.7 104.75 97C104.99 95.1667 104.557 92.9433 103.45 90.33C102.383 87.8233 101.84 86.54 101.82 86.48C94.72 67.7333 87.6134 48.99 80.5 30.25C78.88 25.9833 78.3167 21.82 78.81 17.76C79.33 13.4467 80.9134 9.73 83.56 6.61C86.6934 2.93 90.9434 0.726667 96.31 0Z" fill="#FD9D01"/>
<path d="M165.542 14.2002L165.423 14.0925C163.904 12.7098 161.551 12.8208 160.168 14.3403L141.31 35.0648C139.928 36.5844 140.039 38.9371 141.558 40.3198L141.677 40.4275C143.196 41.8102 145.549 41.6993 146.932 40.1797L165.789 19.4552C167.172 17.9356 167.061 15.5829 165.542 14.2002Z" fill="#272526"/>
<path d="M174.821 39.9557L148.81 49.9925C146.899 50.7301 145.947 52.8777 146.684 54.7893L146.742 54.9386C147.48 56.8502 149.627 57.8019 151.539 57.0642L177.55 47.0275C179.461 46.2899 180.413 44.1423 179.675 42.2307L179.618 42.0814C178.88 40.1698 176.732 39.2181 174.821 39.9557Z" fill="#272526"/>
<path d="M188 72.31C188 72.4767 188 72.6433 188 72.81C187.293 75.21 185.46 76.2733 182.5 76C173.993 75.22 165.493 74.3867 157 73.5C155.373 73.3267 154.17 72.7667 153.39 71.82C152.59 70.8467 152.393 69.6933 152.8 68.36C153.327 66.6533 154.727 65.8667 157 66C161.707 66.28 169.533 67.0433 180.48 68.29C180.52 68.29 181.41 68.3167 183.15 68.37C185.643 68.4433 187.26 69.7567 188 72.31Z" fill="#272526"/>
<path d="M0 98.94C0 98.52 0 98.1033 0 97.69C0.773333 92.11 3.31 88.27 7.61 86.17C11.31 84.3633 14.9867 84.1767 18.64 85.61C22.3467 87.0633 25.1333 90.0267 27 94.5C30.1733 102.107 32.4033 108.043 33.69 112.31C34.1433 113.81 34.2367 115.467 33.97 117.28C33.7367 118.88 33.2233 120.427 32.43 121.92C30.4833 125.573 27.62 127.867 23.84 128.8C20.1533 129.707 16.7033 129.24 13.49 127.4C11.1967 126.087 9.40333 124.227 8.11 121.82C7.93667 121.507 6.97 119.173 5.21 114.82C3.11667 109.647 1.38 104.353 0 98.94ZM19.5599 96.0949C19.2851 95.3677 18.8698 94.7017 18.3376 94.1349C17.8054 93.5682 17.1668 93.1119 16.4582 92.7919C15.7497 92.472 14.9851 92.2948 14.208 92.2704C13.431 92.2459 12.6567 92.3748 11.9295 92.6496L11.5366 92.7981C10.8094 93.0729 10.1434 93.4882 9.57664 94.0204C9.00992 94.5526 8.55356 95.1912 8.23364 95.8997C7.91371 96.6083 7.73648 97.3729 7.71206 98.15C7.68763 98.927 7.8165 99.7013 8.0913 100.428L14.6801 117.865C14.9549 118.592 15.3702 119.258 15.9024 119.825C16.4346 120.392 17.0732 120.848 17.7818 121.168C18.4903 121.488 19.2549 121.665 20.032 121.69C20.809 121.714 21.5833 121.585 22.3105 121.31L22.7034 121.162C23.4306 120.887 24.0966 120.472 24.6634 119.94C25.2301 119.407 25.6864 118.769 26.0064 118.06C26.3263 117.352 26.5035 116.587 26.5279 115.81C26.5524 115.033 26.4235 114.259 26.1487 113.531L19.5599 96.0949Z" fill="#272526"/>
</g>
<defs>
<clipPath id="clip0_883_1089">
<rect width="188" height="132" fill="white"/>
</clipPath>
</defs>
</svg>
