<svg width="137" height="32" viewBox="0 0 137 32" fill="none" xmlns="http://www.w3.org/2000/svg">
<path d="M11.3101 22.4401C12.9368 23.3531 13.7501 22.873 13.7501 21C13.7501 16.333 13.7501 11.667 13.7501 7.00005C13.7501 5.24705 14.1101 3.83304 14.8301 2.76004C15.5768 1.64004 16.7401 0.993056 18.3201 0.820056C20.2335 0.613056 21.6235 1.35005 22.4901 3.03005C22.9501 3.91705 23.1935 5.31305 23.2201 7.22005C23.3468 14.98 23.4401 22.7371 23.5001 30.4901C23.5001 30.6631 23.4689 30.8291 23.4085 30.9771C23.3481 31.1261 23.26 31.2531 23.1501 31.3501C22.3835 32.0301 21.7201 31.9931 21.1601 31.2401C20.8868 30.8671 20.7468 30.337 20.7401 29.65C20.6335 21.517 20.5535 13.383 20.5001 5.25005C20.4868 3.40305 19.8201 2.73705 18.5001 3.25005C17.0401 3.82305 16.3535 4.92705 16.4401 6.56005C16.8668 14.42 16.8035 19.65 16.2501 22.25C15.8835 23.97 14.6301 24.9201 12.4901 25.1001C10.4101 25.2671 8.92351 24.65 8.03011 23.25C7.53681 22.483 7.23351 21.097 7.12011 19.09C7.02681 17.55 6.94351 16.0071 6.87011 14.4601C6.82351 13.4401 6.61011 12.6431 6.23011 12.0701C5.41011 10.8501 4.53681 10.847 3.61011 12.06C3.20351 12.58 2.97681 13.267 2.93011 14.12C2.75011 17.407 2.76351 20.703 2.97011 24.01C2.97971 24.181 2.96071 24.348 2.91431 24.499C2.86801 24.65 2.79511 24.783 2.70011 24.89C2.05351 25.637 1.37351 25.693 0.66011 25.06C0.54971 24.959 0.460709 24.83 0.398809 24.68C0.336809 24.531 0.303209 24.3641 0.300109 24.1901C0.240109 20.6231 0.233509 17.06 0.280109 13.5C0.306809 11.893 0.833509 10.6401 1.86011 9.74005C2.84681 8.86705 4.02681 8.48304 5.40011 8.59004C6.50011 8.67704 7.45011 9.11005 8.25011 9.89005C8.86351 10.49 9.25681 11.373 9.43011 12.54C9.77011 14.927 9.90011 17.33 9.82011 19.75C9.78011 20.963 10.2768 21.8601 11.3101 22.4401Z" fill="#EFA024"/>
<path d="M121.59 14.0301C123.79 10.9571 126.677 9.78005 130.25 10.5001C132.917 11.0401 134.667 12.7901 135.5 15.7501C136.12 17.9431 136.273 22.3401 135.96 28.9401C135.954 29.0931 135.904 29.24 135.814 29.361C135.725 29.483 135.601 29.573 135.46 29.62C134.033 30.1 133.36 29.58 133.44 28.06C133.48 27.367 133.5 26.9931 133.5 26.9401C133.5 24.1271 133.477 21.3131 133.43 18.5001C133.363 14.5731 131.533 12.51 127.94 12.31C124.627 12.123 122.48 13.7701 121.5 17.2501C121.167 18.4231 121.08 22.26 121.24 28.76C121.243 28.915 121.205 29.0661 121.13 29.1951C121.056 29.3241 120.948 29.4271 120.82 29.4901C119.447 30.1901 118.757 29.6101 118.75 27.7501C118.717 20.0231 118.737 12.2971 118.81 4.57006C118.81 4.40506 118.853 4.24605 118.934 4.11405C119.014 3.98205 119.127 3.88305 119.26 3.83005C119.753 3.63005 120.25 3.63005 120.75 3.83005C120.88 3.88405 120.992 3.98306 121.07 4.11506C121.149 4.24606 121.19 4.40506 121.19 4.57006L121.31 13.9401C121.31 14.2601 121.403 14.2901 121.59 14.0301Z" fill="#272526"/>
<path d="M55.5298 9.21002C55.5403 9.56502 55.6895 9.90301 55.9456 10.149C56.2017 10.396 56.5442 10.533 56.8998 10.53C59.5798 10.497 60.7432 11.063 60.3898 12.23C60.3467 12.369 60.2555 12.49 60.1296 12.577C60.0036 12.663 59.8495 12.71 59.6898 12.71L56.0498 12.75C55.904 12.75 55.7641 12.806 55.6609 12.905C55.5578 13.005 55.4998 13.139 55.4998 13.28C55.4998 16.293 55.4998 19.117 55.4998 21.75C55.4998 21.817 55.4632 22.48 55.3898 23.74C55.2165 26.627 56.6698 27.977 59.7498 27.79C59.9161 27.781 60.0786 27.807 60.2232 27.866C60.3678 27.925 60.4902 28.016 60.5798 28.13C61.3065 29.063 61.0298 29.603 59.7498 29.75C54.9632 30.297 52.6765 28.3 52.8898 23.76C52.9632 22.127 52.9998 21.283 52.9998 21.23C52.9998 19.49 52.9998 17.75 52.9998 16.01C52.9998 15.93 53.0432 15.423 53.1298 14.49C53.2632 13.03 52.5465 12.42 50.9798 12.66C50.8121 12.684 50.6468 12.669 50.5034 12.618C50.3599 12.567 50.2442 12.481 50.1698 12.37C49.8765 11.937 49.8298 11.46 50.0298 10.94C50.0735 10.819 50.1684 10.719 50.298 10.657C50.4276 10.595 50.5838 10.575 50.7398 10.6C52.6732 10.9 53.4265 9.95001 52.9998 7.75001C52.6265 5.84301 53.2865 5.21701 54.9798 5.87001C55.1158 5.92101 55.2334 6.014 55.3172 6.137C55.4011 6.26 55.4473 6.40701 55.4498 6.56001L55.5298 9.21002Z" fill="#272526"/>
<path d="M67.1101 12.59C66.7968 13.79 67.0734 13.947 67.9401 13.06C69.4801 11.48 71.3934 10.623 73.6801 10.49C73.8165 10.482 73.9506 10.527 74.053 10.617C74.156 10.707 74.22 10.834 74.23 10.97C74.33 12.29 73.9168 12.997 72.9901 13.09C71.7368 13.21 71.0868 13.28 71.0401 13.3C68.2401 14.373 66.9768 16.69 67.2501 20.25C67.3234 21.243 67.3068 24.14 67.2001 28.94C67.1976 29.093 67.1513 29.24 67.0675 29.363C66.9836 29.486 66.8661 29.579 66.7301 29.63C65.2434 30.17 64.5468 29.66 64.6401 28.1C64.7068 27.027 64.7401 26.46 64.7401 26.4C64.6668 21.493 64.7268 16.59 64.9201 11.69C64.9261 11.534 64.9735 11.384 65.0568 11.259C65.1401 11.133 65.2557 11.036 65.3901 10.98C66.9834 10.327 67.5568 10.863 67.1101 12.59Z" fill="#272526"/>
<path d="M106.7 28.04C108 28.4 109.223 28.227 110.37 27.52C112.57 26.16 112.86 24.647 111.24 22.98C110.533 22.247 109.413 21.673 107.88 21.26C105.293 20.56 103.686 20.037 103.06 19.69C100.946 18.503 100.093 16.857 100.5 14.75C100.953 12.41 102.54 11.017 105.26 10.57C109.3 9.89699 112.11 11.227 113.69 14.56C114.483 16.247 114.056 16.877 112.41 16.45C112.27 16.412 112.14 16.338 112.028 16.232C111.917 16.126 111.828 15.991 111.77 15.84C110.663 13.02 108.703 11.867 105.89 12.38C104.73 12.593 103.863 13.163 103.29 14.09C102.423 15.497 102.603 16.697 103.83 17.69C104.39 18.15 105.62 18.63 107.52 19.13C108.713 19.443 109.876 19.837 111.01 20.31C112.276 20.83 113.183 21.58 113.73 22.56C115.096 25.013 114.5 27.14 111.94 28.94C110.086 30.233 107.843 30.467 105.21 29.64C102.723 28.853 101.206 27.243 100.66 24.81C100.626 24.664 100.641 24.512 100.703 24.38C100.765 24.248 100.87 24.146 101 24.09C102.066 23.63 102.813 23.973 103.24 25.12C103.78 26.587 104.933 27.56 106.7 28.04Z" fill="#272526"/>
<path d="M43.9999 14.4799C44.3066 13.6129 44.4132 12.7029 44.3199 11.7499C44.302 11.5919 44.3246 11.4359 44.3849 11.2999C44.4452 11.1629 44.5407 11.0519 44.6599 10.9799C46.0532 10.1669 46.7532 10.6729 46.7599 12.4999C46.7866 17.9799 46.7632 23.4599 46.6899 28.9399C46.6902 29.0919 46.646 29.2389 46.5635 29.3609C46.481 29.4829 46.3644 29.5739 46.2299 29.6199C44.5032 30.2329 43.8666 29.3129 44.3199 26.8599C44.5799 25.4729 44.2932 25.3499 43.4599 26.4899C40.8532 30.0699 37.5266 31.0799 33.4799 29.5199C31.3932 28.7199 29.8999 27.4869 28.9999 25.8199C28.0866 24.1199 27.6699 22.0969 27.7499 19.7499C27.8966 15.5369 29.7332 12.7469 33.2599 11.3799C37.7532 9.62694 41.1866 10.6699 43.5599 14.5099C43.7399 14.8029 43.8866 14.7929 43.9999 14.4799ZM37.0766 27.8199C38.0129 27.8219 38.9404 27.6259 39.8062 27.2439C40.6719 26.8619 41.4589 26.3009 42.1222 25.5939C42.7855 24.8869 43.3122 24.0459 43.6721 23.1209C44.032 22.1959 44.2182 21.2039 44.2199 20.2019C44.2234 18.1789 43.4756 16.2369 42.141 14.8039C40.8063 13.3699 38.9942 12.5629 37.1032 12.5599C36.1669 12.5579 35.2394 12.7539 34.3736 13.1359C33.5079 13.5179 32.7209 14.0789 32.0576 14.7859C31.3943 15.4929 30.8676 16.3339 30.5077 17.2589C30.1478 18.1839 29.9616 19.1759 29.9599 20.1779C29.9564 22.2009 30.7042 24.1429 32.0388 25.5759C33.3735 27.0099 35.1856 27.8169 37.0766 27.8199Z" fill="#272526"/>
<path d="M93.25 14.47C93.563 13.603 93.67 12.693 93.57 11.74C93.552 11.581 93.575 11.4239 93.635 11.2859C93.695 11.1479 93.791 11.035 93.91 10.96C95.057 10.233 95.637 10.663 95.65 12.25C95.717 17.75 95.75 23.25 95.75 28.75C95.75 28.925 95.717 29.092 95.652 29.237C95.588 29.381 95.494 29.499 95.38 29.58C94.947 29.88 94.483 29.917 93.99 29.69C93.847 29.625 93.725 29.5179 93.64 29.3829C93.555 29.2489 93.51 29.0909 93.51 28.9299L93.55 26.1C93.563 25.24 93.347 25.157 92.9 25.85C91.32 28.323 89.183 29.6529 86.49 29.8399C81.543 30.1729 78.48 27.987 77.3 23.28C76.093 18.487 77.107 14.88 80.34 12.46C82.32 10.98 84.433 10.327 86.68 10.5C89.253 10.7 91.297 12.0369 92.81 14.5099C92.99 14.8029 93.137 14.79 93.25 14.47ZM86.16 27.88C88.048 27.899 89.867 27.11 91.218 25.686C92.568 24.262 93.338 22.319 93.36 20.285C93.37 19.277 93.196 18.2779 92.848 17.3439C92.5 16.4099 91.985 15.5589 91.331 14.8399C90.677 14.1199 89.899 13.547 89.039 13.153C88.179 12.758 87.255 12.5499 86.32 12.5399C84.432 12.5209 82.613 13.3099 81.262 14.7339C79.912 16.1579 79.142 18.1009 79.12 20.1349C79.11 21.1429 79.284 22.142 79.632 23.076C79.98 24.01 80.495 24.861 81.149 25.58C81.803 26.3 82.581 26.873 83.441 27.267C84.301 27.662 85.225 27.87 86.16 27.88Z" fill="#272526"/>
</svg>
